<?xml version="1.0"?>
<svg xmlns="http://www.w3.org/2000/svg" xmlns:xlink="http://www.w3.org/1999/xlink" xmlns:svgjs="http://svgjs.com/svgjs" version="1.1" width="512" height="512" x="0" y="0" viewBox="0 0 511.182 511.182" style="enable-background:new 0 0 512 512" xml:space="preserve" class=""><g><path xmlns="http://www.w3.org/2000/svg" d="m491.182 113.591h-95.591v-56c0-11.046-8.954-20-20-20h-240c-11.046 0-20 8.954-20 20v56h-95.591c-11.046 0-20 8.954-20 20v320c0 11.046 8.954 20 20 20h471.182c11.046 0 20-8.954 20-20 0-176.802 0-311.002 0-320 0-11.046-8.954-20-20-20zm-335.591-36h200v36h-200zm-115.591 76h431.182v45.67l-215.591 73.208-215.591-73.208zm0 280v-192.087l209.16 71.025c4.17 1.416 8.691 1.416 12.861 0l209.16-71.025v192.087z" fill="#e03a3c" data-original="#000000" style=""/></g></svg>
