<?xml version="1.0"?>
<svg xmlns="http://www.w3.org/2000/svg" xmlns:xlink="http://www.w3.org/1999/xlink" xmlns:svgjs="http://svgjs.com/svgjs" version="1.1" width="512" height="512" x="0" y="0" viewBox="0 0 512 512" style="enable-background:new 0 0 512 512" xml:space="preserve" class=""><g>
<g xmlns="http://www.w3.org/2000/svg">
	<g>
		<path d="M467,60h-15V45c0-24.813-20.187-45-45-45s-45,20.187-45,45v15H150V45c0-24.813-20.187-45-45-45S60,20.187,60,45v15H45    C20.187,60,0,80.187,0,105v362c0,24.813,20.187,45,45,45h422c24.813,0,45-20.187,45-45V105C512,80.187,491.813,60,467,60z M392,45    c0-8.271,6.729-15,15-15s15,6.729,15,15v60c0,8.271-6.729,15-15,15s-15-6.729-15-15V45z M90,45c0-8.271,6.729-15,15-15    s15,6.729,15,15v60c0,8.271-6.729,15-15,15s-15-6.729-15-15V45z M482,467c0,8.271-6.729,15-15,15H45c-8.271,0-15-6.729-15-15V212    h452V467z M482,182H30v-77c0-8.271,6.729-15,15-15h15v15c0,24.813,20.187,45,45,45s45-20.187,45-45V90h212v15    c0,24.813,20.187,45,45,45s45-20.187,45-45V90h15c8.271,0,15,6.729,15,15V182z" fill="#e03a3c" data-original="#000000" style=""/>
	</g>
</g>
<g xmlns="http://www.w3.org/2000/svg">
	<g>
		<path d="M166,242h-60c-8.284,0-15,6.716-15,15v60c0,8.284,6.716,15,15,15h60c8.284,0,15-6.716,15-15v-60    C181,248.716,174.284,242,166,242z M151,302h-30v-30h30V302z" fill="#e03a3c" data-original="#000000" style=""/>
	</g>
</g>
<g xmlns="http://www.w3.org/2000/svg">
	<g>
		<path d="M166,362h-60c-8.284,0-15,6.716-15,15v60c0,8.284,6.716,15,15,15h60c8.284,0,15-6.716,15-15v-60    C181,368.716,174.284,362,166,362z M151,422h-30v-30h30V422z" fill="#e03a3c" data-original="#000000" style=""/>
	</g>
</g>
<g xmlns="http://www.w3.org/2000/svg">
	<g>
		<path d="M286,362h-60c-8.284,0-15,6.716-15,15v60c0,8.284,6.716,15,15,15h60c8.284,0,15-6.716,15-15v-60    C301,368.716,294.284,362,286,362z M271,422h-30v-30h30V422z" fill="#e03a3c" data-original="#000000" style=""/>
	</g>
</g>
<g xmlns="http://www.w3.org/2000/svg">
	<g>
		<path d="M286,242h-60c-8.284,0-15,6.716-15,15v60c0,8.284,6.716,15,15,15h60c8.284,0,15-6.716,15-15v-60    C301,248.716,294.284,242,286,242z M271,302h-30v-30h30V302z" fill="#e03a3c" data-original="#000000" style=""/>
	</g>
</g>
<g xmlns="http://www.w3.org/2000/svg">
	<g>
		<path d="M406,242h-60c-8.284,0-15,6.716-15,15v60c0,8.284,6.716,15,15,15h60c8.284,0,15-6.716,15-15v-60    C421,248.716,414.284,242,406,242z M391,302h-30v-30h30V302z" fill="#e03a3c" data-original="#000000" style=""/>
	</g>
</g>
<g xmlns="http://www.w3.org/2000/svg">
	<g>
		<path d="M406,362h-60c-8.284,0-15,6.716-15,15v60c0,8.284,6.716,15,15,15h60c8.284,0,15-6.716,15-15v-60    C421,368.716,414.284,362,406,362z M391,422h-30v-30h30V422z" fill="#e03a3c" data-original="#000000" style=""/>
	</g>
</g>
<g xmlns="http://www.w3.org/2000/svg">
</g>
<g xmlns="http://www.w3.org/2000/svg">
</g>
<g xmlns="http://www.w3.org/2000/svg">
</g>
<g xmlns="http://www.w3.org/2000/svg">
</g>
<g xmlns="http://www.w3.org/2000/svg">
</g>
<g xmlns="http://www.w3.org/2000/svg">
</g>
<g xmlns="http://www.w3.org/2000/svg">
</g>
<g xmlns="http://www.w3.org/2000/svg">
</g>
<g xmlns="http://www.w3.org/2000/svg">
</g>
<g xmlns="http://www.w3.org/2000/svg">
</g>
<g xmlns="http://www.w3.org/2000/svg">
</g>
<g xmlns="http://www.w3.org/2000/svg">
</g>
<g xmlns="http://www.w3.org/2000/svg">
</g>
<g xmlns="http://www.w3.org/2000/svg">
</g>
<g xmlns="http://www.w3.org/2000/svg">
</g>
</g></svg>
