<?xml version="1.0"?>
<svg xmlns="http://www.w3.org/2000/svg" xmlns:xlink="http://www.w3.org/1999/xlink" xmlns:svgjs="http://svgjs.com/svgjs" version="1.1" width="512" height="512" x="0" y="0" viewBox="0 0 511.99984 511" style="enable-background:new 0 0 512 512" xml:space="preserve" class=""><g><path xmlns="http://www.w3.org/2000/svg" d="m505.835938 78.082031c-66.613282-48.578125-160.011719-77.582031-249.835938-77.582031s-183.222656 29.003906-249.835938 77.582031c-6.6875 4.878907-8.160156 14.25-3.292968 20.945313l35.277344 48.507812c4.875 6.699219 14.269531 8.183594 20.96875 3.296875 51.03125-37.214843 126.472656-60.332031 196.882812-60.332031s145.851562 23.117188 196.882812 60.332031c6.683594 4.878907 16.082032 3.421875 20.96875-3.296875l35.277344-48.507812c4.871094-6.695313 3.394532-16.066406-3.292968-20.945313zm-47.664063 40.003907c-55.246094-35.753907-131.199219-57.585938-202.171875-57.585938s-146.925781 21.832031-202.171875 57.585938l-17.667969-24.292969c60.605469-39.816407 141.574219-63.292969 219.839844-63.292969s159.234375 23.476562 219.839844 63.292969zm0 0" fill="#e03a3c" data-original="#000000" style="" class=""/><path xmlns="http://www.w3.org/2000/svg" d="m435.277344 175.101562c-46.183594-33.679687-114.875-54.601562-179.277344-54.601562s-133.097656 20.921875-179.277344 54.601562c-6.6875 4.878907-8.160156 14.25-3.292968 20.941407l35.273437 48.503906c2.34375 3.222656 5.867187 5.378906 9.800781 5.996094 3.9375.621093 7.953125-.351563 11.167969-2.695313 30.632813-22.339844 81.398437-37.347656 126.328125-37.347656s95.695312 15.007812 126.328125 37.347656c6.683594 4.875 16.082031 3.417969 20.96875-3.296875l35.273437-48.503906c4.867188-6.695313 3.394532-16.070313-3.292968-20.945313zm-47.820313 40.21875c-35.71875-21.414062-85.550781-34.820312-131.457031-34.820312s-95.738281 13.40625-131.457031 34.820312l-17.683594-24.3125c40.480469-24.878906 97.234375-40.507812 149.140625-40.507812s108.660156 15.628906 149.140625 40.507812zm0 0" fill="#e03a3c" data-original="#000000" style="" class=""/><path xmlns="http://www.w3.org/2000/svg" d="m364.722656 272.113281c-25.523437-18.613281-70.230468-31.613281-108.722656-31.613281s-83.199219 13-108.726562 31.613281c-6.6875 4.878907-8.160157 14.25-3.289063 20.945313l35.273437 48.503906c4.871094 6.699219 14.269532 8.179688 20.96875 3.296875 11.777344-8.589844 38.347657-14.359375 55.773438-14.359375 17.421875 0 43.992188 5.769531 55.769531 14.359375 6.695313 4.882813 16.09375 3.40625 20.96875-3.296875l35.273438-48.503906c4.871093-6.695313 3.398437-16.066406-3.289063-20.945313zm-48.421875 41.046875c-18.328125-8.269531-42.761719-12.660156-60.300781-12.660156s-41.972656 4.390625-60.300781 12.660156l-17.863281-24.5625c21.4375-10.832031 51.832031-18.097656 78.164062-18.097656s56.726562 7.265625 78.164062 18.097656zm0 0" fill="#e03a3c" data-original="#000000" style="" class=""/><path xmlns="http://www.w3.org/2000/svg" d="m256 360.5c-24.8125 0-45 20.183594-45 45 0 24.8125 20.1875 45 45 45s45-20.1875 45-45c0-24.816406-20.1875-45-45-45zm0 60c-8.269531 0-15-6.730469-15-15 0-8.273438 6.730469-15 15-15s15 6.726562 15 15c0 8.269531-6.730469 15-15 15zm0 0" fill="#e03a3c" data-original="#000000" style="" class=""/></g></svg>
